**ABCDEFGHIJKLMNOPQRSTUVWXYZabcdefghijklmnopqrstuvwxyz**************************
**PARASOLID !"#$%&'()*+,-./:;<=>?@[\]^_`{|}~0123456789**************************
**PART1;
MC=x64/Windows NT;
MC_MODEL=genuineintel family 6 model 7 stepping 6, intel(r) core(tm)2 duo cpu     t8100  @ 2.10ghz;
MC_ID=darkflame;
OS=windows nt (x64);
OS_RELEASE=6.1 (workstation) (build 7601: service pack 1) ;
FRU=mdc_ugii_v7.0_djl_can_vrh;
APPL=unigraphics;
SITE=unknown;
USER=Hammerhead;
FORMAT=text;
GUISE=transmit;
KEY=1516TSR;
FILE=E:\WORK\MISC\DI\MOTORS\2011-11-25\1516TSR.x_t;
DATE=21-dec-2011;
**PART2;
SCH=SCH_2201175_20000;
USFLD_SIZE=0;
**PART3;
**END_OF_HEADER*****************************************************************
T51 : TRANSMIT FILE created by modeller version 220117523 SCH_2201175_20000_1300
6186 0 12 27 CCCCCCCCCCCCCCCCCCCCCCCA16 index_map_offset0 0 1 dA9 index_map82 0
 A17 node_id_index_map82 0 A20 schema_embedding_map82 0 Z1 1885 2 3 0 0 0 0 1e3
 1e-8 0 0 0 1 0 1 1 4 5 6 7 8 9 10 0 0 0 0 81 255 2 2 1786 11 1 0 0 0 0 12 13 70
 11 CI9 list_type0 0 1 uI10 notransmit0 0 1 lCCCDCCDI12 finger_index0 0 1 dI12 f
inger_block1012 0 CZ3 0 4 T1 0 0 3 20 1 14 14 13 255 4 3 0 1 0 15 0 0 16 0 50 25
5 5 176 0 17 18 0 0 +-226255417909876e-31 .0065 .01505 1346145417358002e-30 0 1
 1 0 -1346145417358002e-30 30 255 6 478 0 1 19 0 20 +-.00505 .00554504283121419
 -.001 1346145417358002e-30 0 1 29 255 7 1408 0 10 21 0 .0051 -.0003999999999999
7 -.0033 19 255 8 85 0 1 16 0 22 V16 255 9 154 0 ?23 0 24 25 0 0 1 18 255 10 140
6 0 26 0 27 7 ?1 17 255 26 0 28 29 30 10 31 32 0 33 -18 27 1392 0 34 10 35 21 ?1
 17 34 0 36 37 38 27 39 40 0 41 +18 35 1112 0 42 27 43 44 ?1 29 21 1394 0 27 44
 7 .0053 4e-4 -.00205 29 44 1114 0 35 45 21 .0051 .001 -522915519385669e-32 29 4
5 834 0 43 46 44 -.0051 4e-4 -.0033 18 43 832 0 47 35 48 45 ?1 29 46 811 0 48 49
 45 -.0053 4e-4 -.0033 18 48 809 0 50 43 51 46 ?1 29 49 583 0 51 52 46 -.0051 .0
01 850152806319493e-32 18 51 581 0 53 48 54 49 ?1 29 52 580 0 54 55 49 -.0053 .0
01 872357266811996e-32 18 54 578 0 56 51 57 52 ?1 29 55 574 0 57 58 52 -.0051 -.
001 850152806319493e-32 18 57 572 0 59 54 60 55 ?1 29 58 324 0 60 61 55 .00505 .
00554504283121421 -513269982072018e-32 18 60 323 0 62 57 63 58 254e-7 1 29 61 45
6 0 64 65 58 .00504999999998568 -.00554504283122724 166533453693772e-32 18 64 40
3 0 66 67 68 61 254e-7 1 29 65 457 0 68 69 61 -.00505 -.0055450428312142 8463368
89459564e-32 18 68 401 0 70 64 71 65 254e-7 1 29 69 458 0 71 72 65 -.00505 .0055
4504283121419 846336889459564e-32 18 71 407 0 73 68 74 69 254e-7 1 29 72 459 0 6
3 75 69 .00505 .00554504283121421 -.001 18 63 406 0 76 60 77 72 ?1 29 75 460 0 7
7 78 72 .00504999999998568 -.00554504283122724 -.001 18 77 404 0 79 63 80 75 ?1
 29 78 461 0 80 81 75 -.00505 -.0055450428312142 -.001 18 80 402 0 82 77 67 78 ?
1 29 81 462 0 67 83 78 -.00505 .00554504283121419 -.001 18 67 400 0 84 80 64 81
 ?1 29 83 692 0 85 86 81 -.0053 -.001 872357266811996e-32 18 85 636 0 87 88 89 8
3 ?1 29 86 695 0 74 90 83 -.0053 .001 -.0042 18 74 641 0 91 71 92 86 ?1 29 90 69
6 0 92 93 86 -.0053 -.001 -.0042 18 92 640 0 94 74 95 90 ?1 29 93 697 0 95 96 90
 -.0051 -.001 -.0042 18 95 637 0 97 92 88 93 ?1 29 96 698 0 88 98 93 -.0051 .001
 -.0042 18 88 642 0 99 95 85 96 ?1 29 98 967 0 89 100 96 -.0053 -4e-4 -.0033 18
 89 915 0 101 85 102 98 ?1 29 100 968 0 102 103 98 -.0053 -4e-4 -.00205 18 102 9
13 0 104 89 105 100 ?1 29 103 969 0 105 106 100 -.0053 4e-4 -.00205 18 105 909 0
 107 102 108 103 ?1 29 106 971 0 108 109 103 -.0051 -4e-4 -.00205 18 108 910 0 1
10 105 111 106 ?1 29 109 972 0 111 112 106 -.0051 4e-4 -.00205 18 111 912 0 113
 108 114 109 ?1 29 112 973 0 114 115 109 -.0051 -4e-4 -.0033 18 114 914 0 116 11
1 117 112 ?1 29 115 1228 0 118 119 112 .0053 .001 -554556875587486e-32 18 118 11
75 0 120 121 122 115 ?1 29 119 1229 0 122 123 115 .0053 -.001 -554556875587487e-
32 18 122 1174 0 124 118 125 119 ?1 29 123 1230 0 125 126 119 .0051 -.001 -52291
5519385669e-32 18 125 1173 0 127 122 128 123 ?1 29 126 1232 0 117 129 123 .0053
 .001 -.0042 18 117 1177 0 130 114 131 126 ?1 29 129 1233 0 131 132 126 .0053 -.
001 -.0042 18 131 1178 0 133 117 134 129 ?1 29 132 1234 0 134 135 129 .0051 -.00
1 -.0042 18 134 1179 0 136 131 121 132 ?1 29 135 1235 0 121 137 132 .0051 .001 -
.0042 18 121 1176 0 138 134 118 135 ?1 29 137 1544 0 128 139 135 .0053 -4e-4 -.0
033 18 128 1490 0 140 125 141 137 ?1 29 139 1545 0 141 142 137 .0053 -4e-4 -.002
05 18 141 1488 0 37 128 143 139 ?1 29 142 1547 0 143 144 139 .0053 4e-4 -.0033 1
8 143 1492 0 145 141 146 142 ?1 29 144 1548 0 146 147 142 .0051 -4e-4 -.00205 18
 146 1489 0 148 143 149 144 ?1 29 147 1549 0 149 150 144 .0051 4e-4 -.00205 18 1
49 1486 0 39 146 151 147 ?1 29 150 1551 0 151 152 147 .0051 4e-4 -.0033 18 151 1
487 0 30 149 153 150 ?1 29 152 1615 0 153 154 150 -.005 0 .01342446211310778 18
 153 1596 0 155 151 156 152 ?1 29 154 1652 0 156 157 152 -.0025 -.00433012701892
218 .01342446211310778 18 156 1633 0 158 153 159 154 ?1 29 157 1685 0 159 160 15
4 .0025 -.00433012701892218 .01342446211310778 18 159 1666 0 161 156 162 157 ?1
 29 160 1718 0 162 163 157 .005 -279481037381927e-33 .01342446211310778 18 162 1
699 0 164 159 165 160 ?1 29 163 1751 0 165 166 160 .0025 .00433012701892218 .013
42446211310778 18 165 1732 0 167 162 168 163 ?1 29 166 1784 0 168 0 163 -.0025 .
00433012701892218 .01342446211310778 18 168 1765 0 169 165 0 166 ?1 17 169 0 170
 169 169 168 0 0 0 0 ?15 255 170 1769 0 169 171 0 14 255 171 1766 172 ?173 174 1
75 4 176 -0 0 173 174 22 81 1 172 1883 177 171 178 0 179 180 181 14 173 1773 180
 ?0 171 182 4 183 -0 0 0 171 22 14 174 1740 179 ?171 184 185 4 186 -0 0 171 184
 22 15 175 1768 0 187 171 170 52 255 176 1781 0 171 0 183 0 +-.0025 .00433012701
892218 .0138 619418615866958e-30 -1134818923691876e-30 1 625e-6 .857167300702112
 .515038074910054 .5 -.866025403784439 -129249132454596e-29 13 22 84 0 0 0 0 0 0
 8 15 14 15 137 188 ?189 0 190 4 191 +192 192 189 0 22 81 1 188 1791 177 15 193
 0 0 194 195 14 189 644 194 ?196 15 197 4 198 -0 0 196 15 22 15 190 136 0 199 15
 200 50 191 171 0 192 201 202 0 +-1030425744730224e-32 .0075 -553750777416628e-3
2 -1346145417358002e-30 0 -1 -1 0 1346145417358002e-30 14 192 352 203 ?17 196 20
4 4 191 +15 15 17 196 22 81 1 203 1797 177 192 205 0 206 207 208 14 17 160 207 ?
209 192 210 4 5 +0 0 209 192 22 14 196 654 206 ?192 189 211 4 212 -0 0 192 189 2
2 15 204 585 0 53 192 213 17 53 0 204 56 59 51 214 215 0 216 -15 213 343 0 217 1
92 0 17 217 0 213 218 218 71 219 220 0 0 -17 218 0 213 217 217 68 221 222 0 219
 +17 219 0 223 82 73 68 217 220 0 0 +16 220 134 0 ?219 224 225 226 0 0 1 16 224
 139 0 ?227 228 220 229 0 0 1 16 225 338 0 ?230 220 231 232 0 0 1 133 255 226 33
0 0 220 233 232 0 +233 -.00505 .00554504283121419 846336889459564e-32 -.00505 -.
0055450428312142 846336889459564e-32 2.30950444257373 3.973680864605855 31 255 2
33 326 0 1 25 226 234 +2241782455266725e-48 0 166533453693772e-32 13461454173580
02e-30 0 1 1 0 -1346145417358002e-30 .0075 133 232 340 0 225 226 235 0 +233 .005
05 -.00554504283121418 -513269982072022e-32 .00505 .00554504283121421 -513269982
072018e-32 5.45109709616353 7.11527351819565 133 235 464 0 236 232 237 0 +238 .0
0505 -.00554504283122724 -513269982072022e-32 .00505 .00554504283121421 -5132699
82072018e-32 -130598656888914e-28 .0110900856624284 16 236 392 0 ?239 240 222 23
5 0 0 1 133 237 467 0 241 235 242 0 +242 .00505 .00554504283121421 -.001 .00505
 .00554504283121421 -520417042793042e-32 0 .001 30 238 448 0 1 243 244 245 +.005
05 -.00554504283121418 -513269982072022e-32 -258094826540319e-29 1 3612176142062
615e-45 30 243 450 0 1 246 238 247 +-.00505 .00554504283121419 846336889459564e-
32 312842213988265e-30 -1 -4167895548533785e-46 31 244 177 0 248 238 249 0 +2025
948853123795e-32 0 .01505 1346145417358002e-30 0 1 1 0 -1346145417358002e-30 .00
65 141 255 245 235 245 245 238 16 248 87 0 ?250 251 252 244 0 0 1 31 249 178 0 2
51 244 253 0 +2126909759425645e-32 0 .0158 1346145417358002e-30 0 1 1 0 -1346145
417358002e-30 .0065 16 251 89 0 ?254 255 248 249 0 0 1 31 253 179 0 255 249 256
 0 +2126909759425645e-32 0 .0158 1346145417358002e-30 0 1 1 0 -1346145417358002e
-30 .003 16 255 94 0 ?257 258 251 253 0 0 1 31 256 180 0 258 253 259 0 +22615243
01161445e-32 0 .0168 1346145417358002e-30 0 1 1 0 -1346145417358002e-30 .003 16
 258 99 0 ?260 261 255 256 0 0 1 31 259 181 0 261 256 262 0 +2261524301161445e-3
2 0 .0168 1346145417358002e-30 0 1 1 0 -1346145417358002e-30 .00175 16 261 104 0
 ?263 264 258 259 0 0 1 31 262 182 0 264 259 265 0 +2409600297070825e-32 0 .0179
 1346145417358002e-30 0 1 1 0 -1346145417358002e-30 .00175 16 264 109 0 ?266 267
 261 262 0 0 1 31 265 183 0 267 262 268 0 +2409600297070825e-32 0 .0179 13461454
17358002e-30 0 1 1 0 -1346145417358002e-30 75e-5 16 267 114 0 ?269 231 264 265 0
 0 1 31 268 184 0 231 265 229 0 +3217287547485625e-32 0 .0239 1346145417358002e-
30 0 1 1 0 -1346145417358002e-30 75e-5 16 231 119 0 ?270 225 267 268 0 0 1 31 22
9 186 0 224 268 271 0 +1290386248478394e-33 0 .00095857864376269 134614541735800
2e-30 0 1 1 0 -1346145417358002e-30 .0075 31 271 187 0 228 229 272 0 +1346145417
358002e-33 0 .001 1346145417358002e-30 0 1 1 0 -1346145417358002e-30 .0074 16 22
8 144 0 ?273 24 224 271 0 0 1 31 272 188 0 24 271 25 0 +1401904586237606e-33 0 .
001041421356237308 1346145417358002e-30 0 1 1 0 -1346145417358002e-30 .0075 16 2
4 149 0 ?274 9 228 272 0 0 1 31 25 189 0 9 272 233 0 +2025948853123795e-32 0 .01
505 1346145417358002e-30 0 1 1 0 -1346145417358002e-30 .0075 17 274 0 275 274 27
4 0 276 24 0 0 +15 275 271 0 274 209 277 17 276 0 278 276 276 0 274 24 0 0 -15 2
78 151 0 276 279 0 14 279 152 280 ?281 209 282 4 283 +0 0 281 209 22 81 1 280 18
03 177 279 284 0 285 286 287 14 281 147 286 ?288 279 289 4 290 +0 0 288 279 22 1
4 209 157 285 ?279 17 275 4 18 +0 0 279 17 22 15 282 270 0 273 279 278 52 283 17
4 0 279 290 18 0 +1401904586237606e-33 0 .001041421356237308 1346145417358002e-3
0 0 1 .0075 .92387953251129 .382683432365081 1 0 -1346145417358002e-30 52 290 17
3 0 281 202 283 0 +1346145417358002e-33 0 .001 -1346145417358002e-30 0 -1 .0074
 .923879532511287 .3826834323650905 -1 0 1346145417358002e-30 51 255 18 175 0 20
9 283 5 0 +0 0 0 1346145417358002e-30 0 1 .0075 1 0 -1346145417358002e-30 51 202
 172 0 288 191 290 0 +0 0 0 1346145417358002e-30 0 1 .0075 1 0 -1346145417358002
e-30 14 288 142 291 ?292 281 223 4 202 +0 0 292 281 22 81 1 291 1807 177 288 293
 0 286 294 295 14 292 127 294 ?296 288 297 4 201 +0 0 296 288 22 15 223 268 0 23
0 288 298 17 230 0 223 76 66 60 199 225 0 0 +15 298 141 0 299 288 0 17 299 0 298
 299 299 0 227 224 0 0 -17 227 0 289 227 227 0 299 224 0 0 +15 289 269 0 227 281
 300 15 300 146 0 301 281 0 17 301 0 300 301 301 0 273 228 0 0 -17 273 0 282 273
 273 0 301 228 0 0 +17 76 0 223 302 230 63 62 241 0 303 -17 66 0 223 230 304 64
 79 305 0 306 +17 199 0 190 239 239 64 230 225 0 0 -17 239 0 190 199 199 60 306
 236 0 230 +17 306 0 307 79 62 64 239 236 0 199 -15 307 422 0 306 308 0 17 79 0
 307 303 306 77 66 305 0 304 -17 62 0 307 306 303 60 76 241 0 239 +17 303 0 307
 62 79 63 309 310 0 311 +16 241 378 0 ?62 305 312 237 0 0 1 16 305 374 0 ?66 252
 241 313 0 0 1 16 312 382 0 ?73 241 314 19 0 0 1 17 73 0 223 219 302 71 84 312 0
 221 +16 314 380 0 ?302 312 310 246 0 0 1 133 19 477 0 312 315 6 0 +6 -.00505 .0
0554504283121419 -.001 -.00505 .00554504283121419 845677694538693e-32 0 .001 133
 315 476 0 222 316 19 0 +243 -.00505 .00554504283121419 846336889459564e-32 -.00
505 -.0055450428312142 846336889459564e-32 0 .0110900856624284 16 222 384 0 ?218
 236 317 315 0 0 1 30 316 475 0 1 318 315 319 +-.00505 -.0055450428312142 -.001
 1346145417358002e-30 0 1 133 318 474 0 252 320 316 0 +316 -.00505 -.00554504283
12142 -.001 -.00505 -.0055450428312142 845677694538693e-32 0 .001 141 319 318 31
9 319 316 16 252 370 0 ?70 248 305 318 0 0 1 30 320 470 0 1 313 318 321 +.005049
99999998568 -.00554504283122724 -.001 1346145417358002e-30 0 1 133 313 469 0 305
 242 320 0 +320 .00504999999998568 -.00554504283122724 -.001 .00504999999998568
 -.00554504283122724 1734723475976805e-33 0 .001 141 321 313 321 321 320 30 242
 468 0 1 237 313 322 +.00505 .00554504283121421 -.001 1346145417358002e-30 0 1 1
41 322 237 322 322 242 17 70 0 323 221 324 68 82 252 0 218 +15 323 412 0 221 325
 0 17 221 0 323 84 70 71 218 222 0 217 -17 324 0 323 70 84 80 326 240 0 0 +17 82
 0 223 304 219 80 70 252 0 327 -17 304 0 223 66 82 77 327 328 0 309 +17 327 0 32
9 326 309 80 304 328 0 324 -15 329 432 0 326 330 0 17 326 0 329 311 327 67 324 2
40 0 0 -17 309 0 329 327 311 77 303 310 0 0 -16 328 372 0 ?304 310 240 331 0 0 1
 16 310 376 0 ?303 314 328 332 0 0 1 16 240 368 0 ?324 328 236 333 0 0 1 31 331
 453 0 328 333 332 0 +-1346145417358002e-33 0 -.001 0 0 1 1 0 0 .0075 30 333 454
 0 240 334 331 0 +-.00505 .00554504283121419 -.001 312842213988265e-30 -1 -41678
95548533785e-46 30 332 452 0 310 331 246 0 +.00505 -.00554504283121418 -.001 -25
8094826540319e-29 1 3612176142062615e-45 31 246 451 0 314 332 243 0 +-1346145417
358002e-33 0 -.001 0 0 1 1 0 0 .0075 30 334 679 0 335 336 333 0 +-.0051 .001 -.0
042 1346145417358002e-30 0 1 16 335 608 0 ?337 338 339 334 0 0 1 30 336 680 0 31
7 340 334 0 +-.0051 -.001 -.0042 1346145417358002e-30 0 1 16 317 614 0 ?341 222
 342 336 0 0 1 30 340 681 0 342 343 336 0 +-.0053 -.001 -.0042 1346145417358002e
-30 0 1 16 342 620 0 ?344 317 338 340 0 0 1 30 343 682 0 338 345 340 0 +-.0053 .
001 -.0042 1346145417358002e-30 0 1 16 338 626 0 ?346 342 335 343 0 0 1 30 345 6
83 0 347 348 343 0 +-.0053 .001 872357266811996e-32 1 -1084202172485506e-30 -111
022302462516e-29 16 347 622 0 ?216 349 350 345 0 0 1 30 348 684 0 350 351 345 0
 +-.0053 -.001 872357266811996e-32 433680868994202e-30 1 770371977754895e-45 16
 350 616 0 ?352 347 353 348 0 0 1 30 351 685 0 353 354 348 0 +-.0051 -.001 85015
2806319493e-32 -1 0 1110223024625154e-30 16 353 610 0 ?355 350 215 351 0 0 1 30
 354 686 0 215 356 351 0 +-.0051 .001 850152806319493e-32 0 -1 -770371977754895e
-45 16 215 604 0 ?214 353 357 354 0 0 1 30 356 687 0 339 358 354 0 +-.0053 .001
 -.0042 1 -1084202172485506e-30 -111022302462516e-29 16 339 634 0 ?99 335 359 35
6 0 0 1 30 358 688 0 359 360 356 0 +-.0053 -.001 -.0042 433680868994202e-30 1 77
0371977754895e-45 16 359 632 0 ?91 339 361 358 0 0 1 30 360 689 0 361 362 358 0
 +-.0051 -.001 -.0042 -1 0 1110223024625154e-30 16 361 630 0 ?94 359 349 360 0 0
 1 30 362 690 0 349 363 360 0 +-.0051 .001 -.0042 0 -1 -770371977754895e-45 16 3
49 628 0 ?364 361 347 362 0 0 1 30 363 955 0 365 366 362 0 +.0087800275 -.000399
999999999978 -.0033 -1 -137390099297363e-29 851192252206858e-46 16 365 891 0 ?10
1 367 368 363 0 0 1 30 366 956 0 368 369 363 0 +.0087800275 .000400000000000022
 -.0033 -1 -137390099297363e-29 851192252206858e-46 16 368 887 0 ?370 365 371 36
6 0 0 1 30 369 957 0 371 372 366 0 +.00878002750000001 .0004000000000000195 -.00
205 -1 -137390099297363e-29 851192252206858e-46 16 371 885 0 ?107 368 373 369 0
 0 1 30 372 958 0 373 374 369 0 +.0087800275 -.000399999999999978 -.00205 -1 -13
7390099297363e-29 851192252206858e-46 16 373 889 0 ?104 371 375 372 0 0 1 31 374
 959 0 376 377 372 0 --.0051 154536106133918e-31 -.0033 -1 -1037032707515772e-60
 1346145417358002e-30 1346145417358002e-30 0 1 .0003999999999999855 16 376 877 0
 ?47 378 379 374 0 0 1 30 377 960 0 378 380 374 0 +-.0051 4e-4 -.002049999999999
975 1346145417358002e-30 -1301042606982606e-31 1 16 378 881 0 ?381 382 376 377 0
 0 1 31 380 961 0 382 383 377 0 --.0051 708461067588922e-33 -.00205 -1 -10370327
07515772e-60 1346145417358002e-30 1346145417358002e-30 0 1 4e-4 16 382 869 0 ?38
4 375 378 380 0 0 1 30 383 962 0 375 385 380 0 +-.0051 -4e-4 -.0033 -13461454173
58002e-30 -1301042606982604e-31 -1 16 375 873 0 ?386 373 382 383 0 0 1 30 385 96
3 0 357 387 383 0 +-.0053 -4e-4 -.0033 1387778780781446e-30 1301042606982606e-31
 1 16 357 893 0 ?388 215 389 385 0 0 1 31 387 964 0 389 390 385 0 +-.0053 433680
868994202e-33 -.00205 -1 0 0 0 -1 -183697019872103e-30 4e-4 16 389 897 0 ?391 35
7 392 387 0 0 1 30 390 965 0 392 393 387 0 +-.0053 4e-4 -.00205 -138777878078144
6e-30 1301042606982606e-31 -1 16 392 901 0 ?50 389 367 390 0 0 1 31 393 966 0 36
7 394 390 0 +-.0053 1517883041479705e-32 -.0033 -1 0 0 0 -1 -183697019872103e-30
 .0003999999999999855 16 367 905 0 ?395 392 365 393 0 0 1 30 394 1216 0 396 397
 393 0 +.0051 .001 -.0042 1346145417358002e-30 0 1 16 396 1155 0 ?398 399 400 39
4 0 0 1 30 397 1217 0 379 401 394 0 +.0051 -.001 -.0042 1346145417358002e-30 0 1
 16 379 1143 0 ?402 376 403 397 0 0 1 30 401 1218 0 403 404 397 0 +.0053 -.001 -
.0042 1346145417358002e-30 0 1 16 403 1147 0 ?405 379 399 401 0 0 1 30 404 1219
 0 399 406 401 0 +.0053 .001 -.0042 1346145417358002e-30 0 1 16 399 1151 0 ?407
 403 396 404 0 0 1 30 406 1220 0 408 409 404 0 +.0053 .001 -554556875587486e-32
 -1 -1084202172485506e-30 1582067810090845e-30 16 408 1169 0 ?410 411 412 406 0
 0 1 30 409 1221 0 412 413 406 0 +.0053 -.001 -554556875587487e-32 -433680868994
202e-30 1 1937967006539655e-45 16 412 1165 0 ?414 408 415 409 0 0 1 30 413 1222
 0 415 416 409 0 +.0051 -.001 -522915519385669e-32 1 0 -158206781009085e-29 16 4
15 1161 0 ?417 412 418 413 0 0 1 30 416 1223 0 418 419 413 0 +.0051 .001 -522915
519385669e-32 -2074065415031545e-60 -1 -770371977754895e-45 16 418 1157 0 ?420 4
15 421 416 0 0 1 30 419 1224 0 400 422 416 0 +.0053 .001 -.0042 -1 -108420217248
5506e-30 1582067810090845e-30 16 400 1153 0 ?138 396 423 419 0 0 1 30 422 1225 0
 423 424 419 0 +.0053 -.001 -.0042 -433680868994202e-30 1 1937967006539655e-45 1
6 423 1149 0 ?425 400 426 422 0 0 1 30 424 1226 0 426 427 422 0 +.0051 -.001 -.0
042 1 0 -158206781009085e-29 16 426 1145 0 ?428 423 411 424 0 0 1 30 427 1227 0
 411 429 424 0 +.0051 .001 -.0042 -2074065415031545e-60 -1 -770371977754895e-45
 16 411 1141 0 ?430 426 408 427 0 0 1 30 429 1532 0 431 432 427 0 +-.00878002750
000001 -.000399999999999978 -.0033 1 -137390099297363e-29 -2692290834716005e-30
 16 431 1470 0 ?29 433 434 429 0 0 1 30 432 1533 0 434 435 429 0 +-.008780027500
00001 .000400000000000022 -.0033 1 -137390099297363e-29 -2692290834716005e-30 16
 434 1480 0 ?436 431 40 432 0 0 1 30 435 1534 0 40 437 432 0 +-.0087800275000000
1 .0004000000000000195 -.002049999999999975 1 -137390099297363e-29 -269229083471
6005e-30 16 40 1460 0 ?34 434 438 435 0 0 1 30 437 1535 0 438 439 435 0 +-.00878
002750000001 -.000399999999999978 -.00204999999999997 1 -137390099297363e-29 -26
92290834716005e-30 16 438 1450 0 ?440 40 441 437 0 0 1 31 439 1536 0 32 442 437
 0 -.0051 154536106133918e-31 -.0033 -1 1037032707515772e-60 1346145417358002e-3
0 1346145417358002e-30 0 1 .0003999999999999855 16 32 1476 0 ?31 443 444 439 0 0
 1 30 442 1537 0 443 445 439 0 +.0051 4e-4 -.00205 1346145417358002e-30 -1301042
606982606e-31 1 16 443 1456 0 ?446 447 32 442 0 0 1 31 445 1538 0 447 448 442 0
 -.0051 708461067588922e-33 -.00205 -1 1037032707515772e-60 1346145417358002e-30
 1346145417358002e-30 0 1 4e-4 16 447 1446 0 ?449 441 443 445 0 0 1 30 448 1539
 0 441 450 445 0 +.0051 -4e-4 -.0033 -1346145417358002e-30 -1301042606982604e-31
 -1 16 441 1466 0 ?451 438 447 448 0 0 1 30 450 1540 0 421 452 448 0 +.0053 -4e-
4 -.0033 1304512053934558e-30 1301042606982606e-31 1 16 421 1472 0 ?453 418 454
 450 0 0 1 31 452 1541 0 454 455 450 0 +.0053 433680868994202e-33 -.00205 -1 0 2
692290834716005e-30 -494565802966307e-45 -1 -183697019872103e-30 4e-4 16 454 145
2 0 ?456 421 457 452 0 0 1 30 455 1542 0 457 458 452 0 +.0053 4e-4 -.00205 -1304
512053934558e-30 1301042606982606e-31 -1 16 457 1462 0 ?459 454 433 455 0 0 1 31
 458 1543 0 433 460 455 0 +.0053 1517883041479705e-32 -.0033 -1 0 26922908347160
05e-30 -494565802966307e-45 -1 -183697019872103e-30 .0003999999999999855 16 433
 1482 0 ?461 457 431 458 0 0 1 31 460 1613 0 462 463 458 0 +-.005 0 .0158 -13461
45417358e-27 0 -1 -1 0 1346145417358e-27 625e-6 16 462 1595 0 ?464 444 465 460 0
 0 1 31 463 1614 0 444 466 460 0 +-.005 0 .0138 -1346145417358e-27 0 -1 -1 0 134
6145417358e-27 625e-6 16 444 1594 0 ?467 32 462 463 0 0 1 31 466 1650 0 468 469
 463 0 +-.0025 -.004330127018922175 .0158 -726726801491042e-30 -119677333354819e
-29 -1 -.5 -.866025403784439 1399799510170042e-30 625e-6 16 468 1632 0 ?470 465
 471 466 0 0 1 31 469 1651 0 465 472 466 0 +-.0025 -.00433012701892218 .0138 -72
6726801491042e-30 -119677333354819e-29 -1 -.5 -.866025403784439 1399799510170042
e-30 625e-6 16 465 1631 0 ?473 462 468 469 0 0 1 31 472 1683 0 474 475 469 0 +.0
025 -.004330127018922175 .0158 619418615866958e-30 -1258727743404506e-30 -1 .5 -
.866025403784439 1399799510170042e-30 625e-6 16 474 1665 0 ?476 471 477 472 0 0
 1 31 475 1684 0 471 478 472 0 +.0025 -.00433012701892218 .0138 619418615866958e
-30 -1258727743404506e-30 -1 .5 -.866025403784439 1399799510170042e-30 625e-6 16
 471 1664 0 ?479 468 474 475 0 0 1 31 478 1716 0 480 481 475 0 +.005 14869058365
5226e-34 .0158 1346145417358e-27 -1239088197126294e-31 -1 1 -3885780586188045e-3
1 1346145417358e-27 625e-6 16 480 1698 0 ?482 477 483 478 0 0 1 31 481 1717 0 47
7 484 478 0 +.005 -2329485810597365e-34 .0138 1346145417358e-27 -123908819712629
4e-31 -1 1 -3885780586188045e-31 1346145417358e-27 625e-6 16 477 1697 0 ?485 474
 480 481 0 0 1 31 484 1749 0 486 487 481 0 +.0025 .004330127018922175 .0158 7267
26801491042e-30 1072864513835562e-30 -1 .5 .866025403784438 129249132454596e-29
 625e-6 16 486 1731 0 ?488 483 489 484 0 0 1 31 487 1750 0 483 490 484 0 +.0025
 .004330127018922175 .0138 726726801491042e-30 1072864513835562e-30 -1 .5 .86602
5403784438 129249132454596e-29 625e-6 16 483 1730 0 ?491 480 486 487 0 0 1 31 49
0 1782 0 492 493 487 0 +-.0025 .00433012701892218 .0158 -619418615866958e-30 113
4818923691876e-30 -1 -.5 .866025403784439 129249132454596e-29 625e-6 16 492 1764
 0 ?494 489 0 490 0 0 1 31 493 1783 0 489 0 490 0 +-.0025 .00433012701892218 .01
38 -619418615866958e-30 1134818923691876e-30 -1 -.5 .866025403784439 12924913245
4596e-29 625e-6 16 489 1763 0 ?495 486 492 493 0 0 1 17 495 0 182 495 495 0 187
 489 0 0 +15 182 1775 0 495 173 496 17 187 0 175 187 187 0 495 489 0 0 -15 496 1
776 0 497 173 0 17 497 0 496 497 497 0 494 492 0 0 -17 494 0 498 494 494 0 497 4
92 0 0 +15 498 1755 0 494 499 500 14 499 97 501 ?502 503 498 4 504 +0 0 502 503
 22 15 500 1722 0 488 499 505 17 488 0 500 488 488 0 506 486 0 0 +15 505 1689 0
 482 499 507 17 482 0 505 482 482 0 508 480 0 0 +15 507 1656 0 476 499 509 17 47
6 0 507 476 476 0 510 474 0 0 +15 509 1623 0 470 499 511 17 470 0 509 470 470 0
 512 468 0 0 +15 511 1586 0 464 499 513 17 464 0 511 464 464 0 514 462 0 0 +15 5
13 260 0 254 499 515 17 254 0 513 254 254 0 516 251 0 0 +15 515 96 0 517 499 0 1
7 517 0 515 517 517 0 257 255 0 0 -17 257 0 518 257 257 0 517 255 0 0 +15 518 26
1 0 257 503 519 14 503 102 520 ?499 521 518 4 522 +0 0 499 521 22 15 519 101 0 5
23 503 0 17 523 0 519 523 523 0 260 258 0 0 -17 260 0 524 260 260 0 523 258 0 0
 +15 524 262 0 260 521 525 14 521 107 526 ?503 527 524 4 528 +0 0 503 527 22 15
 525 106 0 529 521 0 17 529 0 525 529 529 0 263 261 0 0 -17 263 0 530 263 263 0
 529 261 0 0 +15 530 263 0 263 527 531 14 527 112 532 ?521 533 530 4 534 +0 0 52
1 533 22 15 531 111 0 535 527 0 17 535 0 531 535 535 0 266 264 0 0 -17 266 0 536
 266 266 0 535 264 0 0 +15 536 264 0 266 533 537 14 533 117 538 ?527 296 536 4 5
39 +0 0 527 296 22 15 537 116 0 540 533 0 17 540 0 537 540 540 0 269 267 0 0 -17
 269 0 541 269 269 0 540 267 0 0 +15 541 265 0 269 296 542 14 296 122 543 ?533 2
92 541 4 544 +0 0 533 292 22 15 542 121 0 545 296 0 17 545 0 542 545 545 0 270 2
31 0 0 -17 270 0 297 270 270 0 545 231 0 0 +15 297 266 0 270 292 0 81 1 543 1811
 177 296 546 0 294 538 547 51 544 169 0 296 539 201 0 +0 0 0 1346145417358002e-3
0 0 1 75e-5 1 0 -1346145417358002e-30 50 539 168 0 533 534 544 0 +-1616360554173
845e-32 75e-5 .0179 1346145417358002e-30 0 1 1 0 -1346145417358002e-30 50 201 17
0 0 292 544 191 0 +-192417353980059e-31 35527136788005e-31 .0239 134614541735800
2e-30 0 1 1 0 -1346145417358002e-30 51 534 167 0 527 528 539 0 +0 0 0 1346145417
358002e-30 0 1 .00175 1 0 -1346145417358002e-30 50 528 166 0 521 522 534 0 +-167
842713411958e-31 .00175 .0168 1346145417358002e-30 0 1 1 0 -1346145417358002e-30
 51 522 165 0 503 504 528 0 +0 0 0 1346145417358002e-30 0 1 .003 1 0 -1346145417
358002e-30 50 504 164 0 499 548 522 0 +-4121702978920895e-33 .003 .0158 13461454
17358002e-30 0 1 1 0 -1346145417358002e-30 51 548 163 0 502 549 504 0 +0 0 0 134
6145417358002e-30 0 1 .0065 1 0 -1346145417358002e-30 14 502 92 550 ?325 499 551
 4 548 +0 0 325 499 22 50 549 437 0 325 552 548 0 +-.00505 .00554504283121419 -.
001 -1 -312842213988265e-30 1346145417358002e-30 1346145417358002e-30 0 1 14 325
 408 553 ?308 502 323 4 549 +0 0 308 502 22 50 552 439 0 308 554 549 0 +.00505 -
.00554504283121418 -.001 1 258094826540319e-29 -1346145417358002e-30 -2580948265
40319e-29 1 0 14 308 418 555 ?330 325 307 4 552 +0 0 330 325 22 50 554 442 0 330
 198 552 0 +-1346145417358002e-33 0 -.001 0 0 1 1 0 0 14 330 428 556 ?557 308 32
9 4 554 -0 0 557 308 22 50 198 673 0 189 558 554 0 +-.0051 .001 -.0042 -1 -10370
32707515772e-60 1346145417358002e-30 1346145417358002e-30 0 1 50 558 674 0 557 2
12 198 0 +-.0051 -.001 -.0042 0 1 0 0 0 1 14 557 649 559 ?560 330 561 4 558 -0 0
 560 330 22 50 212 675 0 196 562 558 0 +-.0053 -.001 -.0042 1 -433680868994202e-
30 -1346145417358002e-30 -1346145417358002e-30 0 -1 50 562 676 0 560 563 212 0 +
-.0053 .001 -.0042 -1084202172485506e-30 -1 1459493785980954e-45 1 -108420217248
5506e-30 0 14 560 659 564 ?565 557 566 4 562 -0 0 565 557 22 50 563 678 0 565 56
7 562 0 +-.0051 -.001 -.0042 -1110223024625154e-30 770371977754895e-45 -1 -1 0 1
110223024625154e-30 14 565 664 568 ?569 560 570 4 563 +0 0 569 560 22 51 567 949
 0 571 572 563 0 +.00878002750000001 345233941781431e-31 -.0033 -1 -137390099297
363e-29 851192252206858e-46 .0003999999999999855 137390099297363e-29 -1 0 14 571
 937 573 ?574 575 576 4 567 -0 0 574 575 22 50 572 950 0 577 578 567 0 +.0087800
275 .000400000000000022 -.00205 -137390099297363e-29 1 1301042606982624e-31 -1 -
137390099297363e-29 0 14 577 927 579 ?575 569 580 4 572 -0 0 575 569 22 51 578 9
51 0 569 581 572 0 +.00878002750000001 1977824463234025e-32 -.00205 -1 -13739009
9297363e-29 851192252206858e-46 4e-4 137390099297363e-29 -1 0 14 569 922 582 ?57
7 565 583 4 578 -0 0 577 565 22 50 581 952 0 575 584 578 0 +.0087800275 -.000399
999999999978 -.0033 137390099297363e-29 -1 1301042606982586e-31 1 13739009929736
3e-29 0 14 575 932 585 ?571 577 586 4 581 -0 0 571 577 22 50 584 1210 0 574 587
 581 0 +.0051 .001 -.0042 1 -1037032707515772e-60 -1346145417358002e-30 13461454
17358002e-30 0 1 14 574 1181 588 ?589 571 590 4 584 -0 0 589 571 22 50 587 1211
 0 589 591 584 0 +.0051 -.001 -.0042 0 1 0 2692290834716005e-30 0 1 14 589 1186
 592 ?593 574 594 4 587 -0 0 593 574 22 50 591 1212 0 593 595 587 0 +.0053 -.001
 -.0042 -1 -433680868994202e-30 1346145417358002e-30 -1346145417358002e-30 0 -1
 14 593 1191 596 ?597 589 598 4 591 -0 0 597 589 22 50 595 1213 0 597 599 591 0
 +.0053 .001 -.0042 1084202172485506e-30 -1 -1459493785980954e-45 -1 -1084202172
485506e-30 2692290834716005e-30 14 597 1196 600 ?601 593 602 4 595 -0 0 601 593
 22 50 599 1215 0 601 603 595 0 +.0051 -.001 -.0042 -158206781009085e-29 7703719
77754895e-45 -1 1 0 -158206781009085e-29 14 601 1201 604 ?605 597 606 4 599 +0 0
 605 597 22 51 603 1526 0 607 608 599 0 +-.00878002750000002 345233941781431e-31
 -.0033 1 -137390099297363e-29 -2692290834716005e-30 .0003999999999999855 -13739
0099297363e-29 -1 3698941051190125e-45 14 607 1514 609 ?610 611 28 4 603 -0 0 61
0 611 22 50 608 1527 0 612 613 603 0 +-.00878002750000001 .000400000000000022 -.
00204999999999997 137390099297363e-29 1 1301042606982588e-31 1 -137390099297363e
-29 -2692290834716005e-30 14 612 1504 614 ?611 605 615 4 608 -0 0 611 605 22 51
 613 1528 0 605 616 608 0 +-.00878002750000001 1977824463234025e-32 -.0020499999
99999975 1 -137390099297363e-29 -2692290834716005e-30 4e-4 -137390099297363e-29
 -1 3698941051190125e-45 14 605 1499 617 ?612 601 36 4 613 -0 0 612 601 22 50 61
6 1529 0 611 618 613 0 +-.00878002750000001 -.000399999999999978 -.0033 -1373900
99297363e-29 -1 1301042606982622e-31 -1 137390099297363e-29 2692290834716005e-30
 14 611 1509 619 ?607 612 620 4 616 -0 0 607 612 22 51 618 1610 0 621 622 616 0
 +-.005 0 .0158 -1346145417358e-27 0 -1 625e-6 -1 0 1346145417358e-27 14 621 160
4 623 ?624 610 625 4 618 -0 0 624 610 22 52 622 1612 0 610 626 618 0 +-.005 0 .0
138 1346145417358e-27 0 1 625e-6 .857167300702112 .515038074910054 1 0 -13461454
17358e-27 14 610 1597 627 ?621 607 628 4 622 -0 0 621 607 22 51 626 1647 0 629 6
30 622 0 +-.0025 -.004330127018922175 .0158 -726726801491042e-30 -11967733335481
9e-29 -1 625e-6 -.5 -.866025403784439 1399799510170042e-30 14 629 1641 631 ?632
 624 633 4 626 -0 0 632 624 22 52 630 1649 0 624 634 626 0 +-.0025 -.00433012701
892218 .0138 726726801491042e-30 119677333354819e-29 1 625e-6 .857167300702112 .
515038074910054 .5 .866025403784439 -1399799510170042e-30 14 624 1634 635 ?629 6
21 636 4 630 -0 0 629 621 22 51 634 1680 0 637 638 630 0 +.0025 -.00433012701892
2175 .0158 619418615866958e-30 -1258727743404506e-30 -1 625e-6 .5 -.866025403784
439 1399799510170042e-30 14 637 1674 639 ?640 632 641 4 634 -0 0 640 632 22 52 6
38 1682 0 632 642 634 0 +.0025 -.00433012701892218 .0138 -619418615866958e-30 12
58727743404506e-30 1 625e-6 .857167300702112 .515038074910054 -.5 .8660254037844
39 -1399799510170042e-30 14 632 1667 643 ?637 629 644 4 638 -0 0 637 629 22 51 6
42 1713 0 645 646 638 0 +.005 148690583655226e-34 .0158 1346145417358e-27 -12390
88197126294e-31 -1 625e-6 1 -3885780586188045e-31 1346145417358e-27 14 645 1707
 647 ?184 640 648 4 642 -0 0 184 640 22 52 646 1715 0 640 186 642 0 +.005 -23294
85810597365e-34 .0138 -1346145417358e-27 1239088197126294e-31 1 625e-6 .85716730
0702112 .515038074910054 -1 3885780586188045e-31 -1346145417358e-27 14 640 1700
 649 ?645 637 650 4 646 -0 0 645 637 22 51 186 1746 0 174 651 646 0 +.0025 .0043
30127018922175 .0158 726726801491042e-30 1072864513835562e-30 -1 625e-6 .5 .8660
25403784438 129249132454596e-29 52 651 1748 0 184 183 186 0 +.0025 .004330127018
922175 .0138 -726726801491042e-30 -1072864513835562e-30 1 625e-6 .85716730070211
2 .515038074910054 -.5 -.866025403784438 -129249132454596e-29 14 184 1733 652 ?1
74 645 653 4 651 -0 0 174 645 22 51 183 1779 0 173 176 651 0 +-.0025 .0043301270
1892218 .0158 -619418615866958e-30 1134818923691876e-30 -1 625e-6 -.5 .866025403
784439 129249132454596e-29 81 1 652 1879 177 184 654 0 647 179 655 15 653 1735 0
 656 184 657 17 656 0 653 656 656 0 491 483 0 0 -15 657 1736 0 167 184 0 17 167
 0 657 167 167 165 0 0 0 0 ?17 491 0 185 491 491 0 656 483 0 0 +15 185 1742 0 49
1 174 658 15 658 1743 0 506 174 0 17 506 0 658 506 506 0 488 486 0 0 -80 255 1 1
77 0 659 8001 0 0 0 0 3 5 0 0 0 FFFFTFTFFFFFFF2 81 1 654 1878 660 184 0 652 661
 662 663 81 1 647 1877 177 645 661 0 649 652 664 81 1 179 1881 177 174 662 0 652
 172 665 83 255 3 655 .5960784 .6666667 .6862745 81 1 662 1880 660 174 0 179 654
 178 666 83 3 665 .5960784 .6666667 .6862745 80 1 660 667 668 8015 0 0 0 0 3 5 0
 0 0 FFFFTFFFFFFFFF2 81 1 178 1882 660 171 0 172 662 669 670 83 1 666 0 81 1 669
 1884 660 173 0 180 178 0 671 83 1 670 0 81 1 180 1885 177 173 669 0 172 0 672 8
3 1 671 0 83 3 672 .5960784 .6666667 .6862745 79 255 21 668 SDL/TYSA_TRANSLUCENC
Y81 1 661 1876 660 645 0 647 673 654 674 81 1 649 1875 177 640 673 0 639 647 675
 83 3 664 .5960784 .6666667 .6862745 81 1 673 1874 660 640 0 649 676 661 677 81
 1 639 1873 177 637 676 0 643 649 678 83 3 675 .5960784 .6666667 .6862745 81 1 6
76 1872 660 637 0 639 679 673 680 81 1 643 1871 177 632 679 0 631 639 681 83 3 6
78 .5960784 .6666667 .6862745 81 1 679 1870 660 632 0 643 682 676 683 81 1 631 1
869 177 629 682 0 635 643 684 83 3 681 .5960784 .6666667 .6862745 81 1 682 1868
 660 629 0 631 685 679 686 81 1 635 1867 177 624 685 0 623 631 687 83 3 684 .596
0784 .6666667 .6862745 81 1 685 1866 660 624 0 635 688 682 689 81 1 623 1865 177
 621 688 0 627 635 690 83 3 687 .5960784 .6666667 .6862745 81 1 688 1864 660 621
 0 623 691 685 692 81 1 627 1863 177 610 691 0 609 623 693 83 3 690 .5960784 .66
66667 .6862745 81 1 691 1862 660 610 0 627 694 688 695 81 1 609 1861 177 607 694
 0 619 627 696 83 3 693 .5960784 .6666667 .6862745 81 1 694 1860 660 607 0 609 6
97 691 698 81 1 619 1859 177 611 697 0 614 609 699 83 3 696 .5960784 .6666667 .6
862745 81 1 697 1858 660 611 0 619 700 694 701 81 1 614 1857 177 612 700 0 617 6
19 702 83 3 699 .5960784 .6666667 .6862745 81 1 700 1856 660 612 0 614 703 697 7
04 81 1 617 1855 177 605 703 0 604 614 705 83 3 702 .5960784 .6666667 .6862745 8
1 1 703 1854 660 605 0 617 706 700 707 81 1 604 1853 177 601 706 0 600 617 708 8
3 3 705 .5960784 .6666667 .6862745 81 1 706 1852 660 601 0 604 709 703 710 81 1
 600 1851 177 597 709 0 596 604 711 83 3 708 .5960784 .6666667 .6862745 81 1 709
 1850 660 597 0 600 712 706 713 81 1 596 1849 177 593 712 0 592 600 714 83 3 711
 .5960784 .6666667 .6862745 81 1 712 1848 660 593 0 596 715 709 716 81 1 592 184
7 177 589 715 0 588 596 717 83 3 714 .5960784 .6666667 .6862745 81 1 715 1846 66
0 589 0 592 718 712 719 81 1 588 1845 177 574 718 0 573 592 720 83 3 717 .596078
4 .6666667 .6862745 81 1 718 1844 660 574 0 588 721 715 722 81 1 573 1843 177 57
1 721 0 585 588 723 83 3 720 .5960784 .6666667 .6862745 81 1 721 1842 660 571 0
 573 724 718 725 81 1 585 1841 177 575 724 0 579 573 726 83 3 723 .5960784 .6666
667 .6862745 81 1 724 1840 660 575 0 585 727 721 728 81 1 579 1839 177 577 727 0
 582 585 729 83 3 726 .5960784 .6666667 .6862745 81 1 727 1838 660 577 0 579 730
 724 731 81 1 582 1837 177 569 730 0 568 579 732 83 3 729 .5960784 .6666667 .686
2745 81 1 730 1836 660 569 0 582 733 727 734 81 1 568 1835 177 565 733 0 564 582
 735 83 3 732 .5960784 .6666667 .6862745 81 1 733 1834 660 565 0 568 736 730 737
 81 1 564 1833 177 560 736 0 559 568 738 83 3 735 .5960784 .6666667 .6862745 81
 1 736 1832 660 560 0 564 739 733 740 81 1 559 1831 177 557 739 0 556 564 741 83
 3 738 .5960784 .6666667 .6862745 81 1 739 1830 660 557 0 559 742 736 743 81 1 5
56 1829 177 330 742 0 555 559 744 83 3 741 .5960784 .6666667 .6862745 81 1 742 1
828 660 330 0 556 745 739 746 81 1 555 1827 177 308 745 0 553 556 747 83 3 744 .
5960784 .6666667 .6862745 81 1 745 1826 660 308 0 555 748 742 749 81 1 553 1825
 177 325 748 0 550 555 750 83 3 747 .5960784 .6666667 .6862745 81 1 748 1824 660
 325 0 553 751 745 752 81 1 550 1823 177 502 751 0 501 553 753 83 3 750 .5960784
 .6666667 .6862745 81 1 751 1822 660 502 0 550 754 748 755 81 1 501 1821 177 499
 754 0 520 550 756 83 3 753 .5960784 .6666667 .6862745 81 1 754 1820 660 499 0 5
01 757 751 758 81 1 520 1819 177 503 757 0 526 501 759 83 3 756 .5960784 .666666
7 .6862745 81 1 757 1818 660 503 0 520 760 754 761 81 1 526 1817 177 521 760 0 5
32 520 762 83 3 759 .5960784 .6666667 .6862745 81 1 760 1816 660 521 0 526 763 7
57 764 81 1 532 1815 177 527 763 0 538 526 765 83 3 762 .5960784 .6666667 .68627
45 81 1 763 1814 660 527 0 532 766 760 767 81 1 538 1813 177 533 766 0 543 532 7
68 83 3 765 .5960784 .6666667 .6862745 81 1 766 1812 660 533 0 538 546 763 769 8
3 3 768 .5960784 .6666667 .6862745 81 1 546 1810 660 296 0 543 770 766 771 83 1
 769 0 81 1 770 1808 660 292 0 294 293 546 772 83 1 771 0 81 1 294 1809 177 292
 770 0 291 543 773 81 1 293 1806 660 288 0 291 774 770 775 83 1 772 0 81 1 774 1
804 660 281 0 286 284 293 776 83 1 775 0 81 1 286 1805 177 281 774 0 280 291 777
 81 1 284 1802 660 279 0 280 778 774 779 83 1 776 0 81 1 778 1800 660 209 0 285
 780 284 781 83 1 779 0 81 1 285 1801 177 209 778 0 207 280 782 81 1 780 1798 66
0 17 0 207 205 778 783 83 1 781 0 81 1 207 1799 177 17 780 0 203 285 784 81 1 20
5 1796 660 192 0 203 785 780 786 83 1 783 0 81 1 785 1794 660 196 0 206 787 205
 788 83 1 786 0 81 1 206 1795 177 196 785 0 194 203 789 81 1 787 1792 660 189 0
 194 193 785 790 83 1 788 0 81 1 194 1793 177 189 787 0 188 206 791 81 1 193 179
0 660 15 0 188 0 787 792 83 1 790 0 83 1 792 0 83 3 791 .5960784 .6666667 .68627
45 83 3 789 .5960784 .6666667 .6862745 83 3 784 .5960784 .6666667 .6862745 83 3
 782 .5960784 .6666667 .6862745 83 3 777 .5960784 .6666667 .6862745 83 3 773 .59
60784 .6666667 .6862745 83 1 767 0 83 1 764 0 83 1 761 0 83 1 758 0 83 1 755 0 8
3 1 752 0 83 1 749 0 83 1 746 0 83 1 743 0 83 1 740 0 83 1 737 0 83 1 734 0 83 1
 731 0 83 1 728 0 83 1 725 0 83 1 722 0 83 1 719 0 83 1 716 0 83 1 713 0 83 1 71
0 0 83 1 707 0 83 1 704 0 83 1 701 0 83 1 698 0 83 1 695 0 83 1 692 0 83 1 689 0
 83 1 686 0 83 1 683 0 83 1 680 0 83 1 677 0 83 1 674 0 83 1 663 0 79 15 659 SDL
/TYSA_COLOUR15 650 1702 0 793 640 794 17 793 0 650 793 793 0 485 477 0 0 -15 794
 1703 0 164 640 0 17 164 0 794 164 164 162 0 0 0 0 ?17 485 0 648 485 485 0 793 4
77 0 0 +15 648 1709 0 485 645 795 15 795 1710 0 508 645 0 17 508 0 795 508 508 0
 482 480 0 0 -15 644 1669 0 796 632 797 17 796 0 644 796 796 0 479 471 0 0 -15 7
97 1670 0 161 632 0 17 161 0 797 161 161 159 0 0 0 0 ?17 479 0 641 479 479 0 796
 471 0 0 +15 641 1676 0 479 637 798 15 798 1677 0 510 637 0 17 510 0 798 510 510
 0 476 474 0 0 -15 636 1636 0 799 624 800 17 799 0 636 799 799 0 473 465 0 0 -15
 800 1637 0 158 624 0 17 158 0 800 158 158 156 0 0 0 0 ?17 473 0 633 473 473 0 7
99 465 0 0 +15 633 1643 0 473 629 801 15 801 1644 0 512 629 0 17 512 0 801 512 5
12 0 470 468 0 0 -15 628 1599 0 802 610 803 17 802 0 628 802 802 0 467 444 0 0 -
15 803 1600 0 155 610 0 17 155 0 803 155 155 153 0 0 0 0 ?17 467 0 625 467 467 0
 802 444 0 0 +15 625 1606 0 467 621 804 15 804 1607 0 514 621 0 17 514 0 804 514
 514 0 464 462 0 0 -15 620 1513 0 805 611 0 17 805 0 620 440 33 146 451 441 0 44
9 -17 440 0 620 140 805 141 148 438 0 453 +17 33 0 620 805 140 10 29 431 0 451 -
17 451 0 590 31 449 10 805 441 0 0 +17 449 0 590 451 446 146 38 447 0 0 +15 590
 1413 0 446 574 806 17 446 0 590 449 31 149 807 443 0 0 +17 38 0 36 34 148 149 4
49 447 0 446 -15 36 1503 0 38 605 0 17 148 0 36 38 37 146 440 438 0 805 -17 37 0
 36 148 34 141 456 454 0 440 -17 456 0 598 459 453 27 37 454 0 0 +15 598 1390 0
 461 593 808 17 459 0 598 461 456 143 41 457 0 0 +17 453 0 598 456 461 141 140 4
21 0 0 +17 461 0 598 453 459 128 145 433 0 0 +17 140 0 620 33 440 128 453 421 0
 29 -17 29 0 28 145 26 128 33 431 0 461 +15 28 1518 0 26 607 0 17 145 0 28 30 29
 143 461 433 0 436 -17 30 0 28 26 145 151 436 434 0 807 -17 436 0 615 41 807 143
 30 434 0 459 +15 615 1508 0 807 612 0 17 41 0 615 39 436 27 459 457 0 456 -17 8
07 0 615 436 39 151 446 443 0 31 -17 39 0 615 807 41 149 34 40 0 38 -17 31 0 590
 446 451 151 26 32 0 0 +15 808 1195 0 124 593 0 17 124 0 808 809 407 122 414 412
 0 405 -17 809 0 808 425 124 131 405 403 0 428 -17 407 0 808 124 425 118 810 399
 0 414 +17 414 0 200 410 417 118 124 412 0 0 +17 405 0 594 127 428 122 809 403 0
 417 +15 594 1190 0 127 589 0 17 127 0 594 811 405 125 417 415 0 402 -17 428 0 5
94 405 811 131 136 426 0 0 +17 417 0 200 414 420 122 127 415 0 0 +15 200 1110 0
 410 15 0 17 420 0 200 417 410 125 42 418 0 0 +17 410 0 200 420 414 35 120 408 0
 0 +17 42 0 806 812 402 35 420 418 0 398 -15 806 1185 0 42 574 0 17 812 0 806 43
0 42 121 398 396 0 0 -17 402 0 806 42 430 125 811 379 0 420 +17 398 0 602 120 13
8 35 812 396 0 410 +15 602 1200 0 120 597 0 17 120 0 602 810 398 118 410 408 0 4
07 -17 138 0 602 398 810 121 130 400 0 813 +17 810 0 602 138 120 117 407 399 0 4
25 -17 130 0 606 133 813 117 138 400 0 810 -17 813 0 606 130 136 121 430 411 0 8
12 -15 606 1205 0 813 601 0 17 136 0 606 813 133 134 428 426 0 811 -17 430 0 806
 402 812 134 813 411 0 0 +17 133 0 606 136 130 131 425 423 0 809 -17 811 0 594 4
28 127 134 402 379 0 430 -17 425 0 808 407 809 117 133 423 0 0 +15 586 936 0 386
 575 0 17 386 0 586 101 110 114 814 375 0 815 +17 101 0 586 388 386 89 116 365 0
 395 +17 110 0 586 386 388 108 104 373 0 384 -17 814 0 816 817 815 108 386 375 0
 0 -17 815 0 816 814 818 114 47 376 0 0 -15 816 845 0 817 189 0 17 818 0 816 815
 817 43 381 378 0 0 -17 47 0 576 370 116 43 815 376 0 819 +15 576 941 0 47 571 0
 17 370 0 576 395 47 48 819 368 0 820 +17 116 0 576 47 395 114 101 365 0 386 -17
 819 0 580 381 50 43 370 368 0 818 -15 580 931 0 381 577 0 17 381 0 580 107 819
 111 818 378 0 817 +17 50 0 580 819 107 48 821 392 0 370 +17 107 0 580 50 381 10
5 113 371 0 391 +17 821 0 822 823 820 105 50 392 0 0 -15 822 822 0 824 196 0 17
 823 0 822 824 821 102 391 389 0 0 -17 820 0 822 821 824 48 395 367 0 0 -17 824
 0 822 820 823 89 388 357 0 0 -17 395 0 576 116 370 89 820 367 0 824 +17 388 0 5
86 110 101 102 824 357 0 823 +17 391 0 583 113 104 105 823 389 0 821 +15 583 926
 0 384 569 0 17 113 0 583 384 391 111 107 371 0 381 -17 104 0 583 391 384 102 11
0 373 0 388 +17 384 0 583 104 113 108 817 382 0 814 +17 817 0 816 818 814 111 38
4 382 0 0 -15 570 668 0 364 565 0 17 364 0 570 94 99 95 825 349 0 826 +17 94 0 5
70 91 364 92 97 361 0 827 +17 99 0 570 364 91 88 828 339 0 829 +17 825 0 197 337
 826 88 364 349 0 0 -17 826 0 197 825 214 95 341 317 0 0 -15 197 648 0 214 189 8
16 17 214 0 197 826 337 57 53 215 0 0 +17 341 0 561 355 97 57 826 317 0 214 +15
 561 653 0 355 557 0 17 355 0 561 827 341 85 59 353 0 344 +17 97 0 561 341 827 9
5 94 361 0 364 -17 827 0 561 97 355 92 344 342 0 830 -17 344 0 211 352 830 85 82
7 342 0 0 +17 830 0 211 344 831 92 91 359 0 0 -15 211 658 0 352 196 822 17 831 0
 211 830 352 74 346 338 0 828 -17 91 0 570 99 94 74 830 359 0 831 +17 352 0 211
 831 344 54 87 350 0 346 +17 346 0 566 216 828 54 831 338 0 0 +17 828 0 566 346
 829 74 99 339 0 0 -15 566 663 0 216 560 0 17 829 0 566 828 216 88 337 335 0 825
 -17 216 0 566 829 346 51 56 347 0 337 +17 337 0 197 214 825 51 829 335 0 0 +17
 56 0 204 87 53 54 216 347 0 352 -17 87 0 204 59 56 85 352 350 0 355 -17 59 0 20
4 53 87 57 355 353 0 341 -15 551 259 0 250 502 832 17 250 0 551 250 250 0 833 24
8 0 0 +15 832 91 0 516 502 0 17 516 0 832 516 516 0 254 251 0 0 -17 833 0 834 83
3 833 0 250 248 0 0 -15 834 159 0 833 17 0 83 3 547 .5960784 .6666667 .6862745 1
7 311 0 329 309 326 63 302 314 0 0 -17 302 0 223 73 76 67 311 314 0 326 +17 84 0
 323 324 221 67 73 312 0 302 -83 3 295 .5960784 .6666667 .6862745 83 3 287 .5960
784 .6666667 .6862745 15 277 156 0 835 209 0 17 835 0 277 835 835 0 23 9 0 0 -17
 23 0 210 23 23 0 835 9 0 0 +15 210 272 0 23 17 834 141 247 315 247 247 243 141
 234 232 836 836 233 141 836 226 234 234 233 83 3 208 .5960784 .6666667 .6862745
 83 3 195 .5960784 .6666667 .6862745 83 3 181 .5960784 .6666667 .6862745 19 16 1
 0 1 0 8 4 S141 20 19 20 20 6 74 4 CI16 index_map_offset0 0 1 dCCZ20 14 3 0 0 2
 669 180 0 0 0 0 0 0 0 0 0 0 0 0 0 0 0 0 0 80 2 11 837 838 8004 0 0 0 0 3 5 0 0
 0 FFTFFFFFFFFFFF2 3 83 1 12 7830.64 84 255 8 13 Kg/Cu M 79 16 838 SDL/TYSA_DENS
ITY1 0 
